<?xml version="1.0" encoding="utf-8"?>
<!-- Generator: Adobe Illustrator 24.2.3, SVG Export Plug-In . SVG Version: 6.00 Build 0)  -->
<svg version="1.1" id="Layer_1" xmlns="http://www.w3.org/2000/svg" xmlns:xlink="http://www.w3.org/1999/xlink" x="0px" y="0px"
	 viewBox="0 0 100 100" style="enable-background:new 0 0 100 100;" xml:space="preserve">
<style type="text/css">
	.st0{fill:#FED23A;}
	.st1{fill:#FFF9E9;}
	.st2{fill:#FFF4D6;}
	.st3{fill:#FFABE7;}
	.st4{fill:#FF6ED4;}
	.st5{fill:#FF5CCF;}
	.st6{fill:#060606;}
</style>
<g>
	<g>
		<g>
			<g>
				<path class="st0" d="M1.5,86.7V4c0-1.2,0.9-2.3,2-2.3h93.2c1.1,0,2,1,2,2.3v82.7c0,1.2-0.9,2.3-2,2.3H3.4
					C2.3,88.9,1.5,87.9,1.5,86.7z"/>
				<path class="st1" d="M6.3,82h85.1V8.6H6.3L6.3,82z"/>
				<path class="st2" d="M84.7,8.6h7.8V82h-7.8V8.6z"/>
			</g>
		</g>
		<path class="st3" d="M76.3,98.3l-4.2-2.3l-4.2,2.3V69.1h8.4V98.3z"/>
		<g>
			<path class="st4" d="M72.1,74.8c-1.5,0-2.5-2.9-3.7-3.5c-1.3-0.6-3.8,0.6-4.8-0.6c-1-1.2,0.1-4-0.5-5.6c-0.5-1.5-3.1-2.6-3.1-4.3
				c0-1.7,2.5-2.8,3.1-4.3c0.6-1.5-0.5-4.4,0.5-5.6c1-1.2,3.5,0.1,4.8-0.6c1.3-0.6,2.3-3.5,3.7-3.5s2.5,2.9,3.7,3.5
				c1.3,0.6,3.8-0.6,4.8,0.6c1,1.2-0.1,4,0.5,5.6c0.5,1.5,3.1,2.6,3.1,4.3c0,1.7-2.5,2.8-3.1,4.3c-0.6,1.5,0.5,4.4-0.5,5.6
				c-1,1.2-3.5-0.1-4.8,0.6C74.6,71.9,73.6,74.8,72.1,74.8L72.1,74.8z"/>
		</g>
		<path class="st5" d="M81.2,56.4c-0.6-1.5,0.5-4.4-0.5-5.6c-1-1.2-3.5,0.1-4.8-0.6c-1.3-0.6-2.3-3.5-3.7-3.5s-2.5,2.9-3.7,3.5
			c-0.1,0-0.1,0-0.2,0.1c1.4,0.5,3.7-0.6,4.6,0.5c1,1.2-0.1,4,0.5,5.6c0.5,1.5,3.1,2.6,3.1,4.3s-2.5,2.8-3.1,4.3
			c-0.6,1.5,0.5,4.4-0.5,5.6c-1,1.1-3.3,0-4.6,0.5c0.1,0,0.1,0,0.2,0.1c1.3,0.6,2.3,3.5,3.7,3.5s2.5-2.9,3.7-3.5
			c1.3-0.6,3.8,0.6,4.8-0.6c1-1.2-0.1-4,0.5-5.6c0.5-1.5,3.1-2.6,3.1-4.3C84.2,59,81.7,57.9,81.2,56.4z"/>
		<ellipse class="st3" cx="72.1" cy="60.8" rx="4.3" ry="4.9"/>
	</g>
	<g>
		<path class="st6" d="M96.6,0H3.4C1.5,0,0,1.8,0,4v13.9c0,2.2,2.9,2.2,2.9,0V4c0-0.3,0.2-0.6,0.5-0.6h93.2c0.3,0,0.5,0.3,0.5,0.6
			v82.7c0,0.3-0.2,0.6-0.5,0.6H77.8v-3.5h14.7c0.8,0,1.5-0.8,1.5-1.7V64.3c0-2.2-2.9-2.2-2.9,0v16.1H77.8v-7.5c0,0,0.1,0,0.1,0
			c1.2,0.1,2.7,0.3,3.8-0.9c1-1.2,0.9-3,0.8-4.4c-0.1-1.5,0-1.9,1-2.9c2.6-2.5,2.6-5.2,0-7.7c-1-1-1.1-1.4-1-2.9
			c0.3-3.8-1.2-5.7-4.6-5.3c-1.3,0.1-1.7,0-2.5-1.2c-2.1-3-4.4-3.1-6.6,0c-0.8,1.2-1.2,1.3-2.5,1.2c-3.3-0.3-4.9,1.4-4.6,5.3
			c0.1,1.5,0,1.9-1,2.9c-2.6,2.5-2.6,5.2,0,7.7c1,1,1.1,1.4,1,2.9c-0.3,4.1,1.4,5.6,4.7,5.3v7.5H8.9v-70h82.2v44.9
			c0,2.2,2.9,2.2,2.9,0V8.6c0-0.9-0.7-1.7-1.5-1.7H7.5C6.6,6.9,6,7.7,6,8.6V82c0,0.9,0.7,1.7,1.5,1.7h59v3.5H3.4
			c-0.3,0-0.5-0.3-0.5-0.6V26.5c0-2.2-2.9-2.2-2.9,0v60.2c0,2.2,1.5,4,3.4,4h63.1v7.7c0.2,1.4,0.9,1.9,2.1,1.5l3.6-1.9l3.6,1.9
			c0.9,0.5,2.1-0.3,2.1-1.5v-7.7h18.8c1.9,0,3.4-1.8,3.4-4V4C100,1.8,98.5,0,96.6,0L96.6,0z M66.1,69.4c-1.5,0.1-1.5,0.1-1.4-1.6
			c0.2-2.6-0.3-4.1-2.1-5.8c-1.2-1.1-1.2-1.3,0-2.5c1.7-1.7,2.3-3.2,2.1-5.8c-0.1-1.7-0.1-1.8,1.4-1.6c2.2,0.2,3.6-0.4,5-2.4
			c1-1.4,1.1-1.4,2.1,0c1.4,2,2.8,2.6,5,2.4c1.5-0.1,1.5-0.1,1.4,1.6c-0.2,2.6,0.3,4.1,2.1,5.8c1.2,1.1,1.2,1.3,0,2.5
			c-1.7,1.7-2.3,3.2-2.1,5.8c0.1,1.7,0.1,1.8-1.4,1.6c-0.9-0.1-2-0.2-2.9,0.2c-0.9,0.4-1.5,1.3-2.1,2.1c-0.3,0.4-0.8,1.1-1.1,1.3
			c-0.3-0.1-0.8-0.9-1.1-1.3c-0.6-0.8-1.2-1.7-2.1-2.1C68,69.3,67.1,69.3,66.1,69.4L66.1,69.4z M72.8,94.5c-0.4-0.2-0.8-0.2-1.2,0
			l-2.1,1.1V74.8c0.7,0.9,1.6,1.7,2.7,1.7s2-0.8,2.7-1.7v20.9L72.8,94.5z"/>
		<path class="st6" d="M19,24.5h50.5c1.9,0,1.9-3.4,0-3.4H19C17.1,21.1,17.1,24.5,19,24.5z"/>
		<path class="st6" d="M82.5,33.1c0-0.9-0.7-1.7-1.5-1.7H19c-1.9,0-1.9,3.4,0,3.4h62C81.8,34.8,82.5,34.1,82.5,33.1z"/>
		<path class="st6" d="M55.7,43.5c0-0.9-0.7-1.7-1.5-1.7H19c-1.9,0-1.9,3.4,0,3.4h35.2C55,45.1,55.7,44.4,55.7,43.5z"/>
		<path class="st6" d="M36.5,67.1c-0.8,0-1.6,0-2.4,0c-1.5,0-2.4-0.5-2.7-2.4c-0.3-1.7-2.4-1.5-2.8,0c-0.2,0.7-1.1,2.6-1.8,2.4
			c-0.4-0.1-0.6-0.8-0.7-1.2c-0.3-0.7-0.5-1.5-0.7-2.3c-0.8-3.3-0.9-6.7-1.4-10.1c-0.3-1.9-2.8-1.4-2.9,0.5
			c-0.1,5.9-1,11.7-2.8,17.2c-0.7,2,2.2,2.9,2.8,0.9c0.7-2.1,1.2-4.3,1.7-6.5c0.2,0.8,0.5,1.6,0.8,2.4c0.9,2,2.6,3.1,4.5,2.2
			c0.7-0.3,1.3-0.9,1.8-1.5c1.4,1.9,3.4,1.8,5.4,1.8c2.9,0,5.8,0,8.7,0c1.9,0,1.9-3.4,0-3.4C41.4,67.1,38.9,67.1,36.5,67.1
			L36.5,67.1z"/>
		<path class="st6" d="M72.1,67.4c3.2,0,5.7-3,5.7-6.6c0-3.7-2.6-6.6-5.7-6.6c-3.2,0-5.7,3-5.7,6.6C66.4,64.4,69,67.4,72.1,67.4z
			 M72.1,57.5c1.5,0,2.8,1.5,2.8,3.2c0,1.8-1.3,3.2-2.8,3.2c-1.5,0-2.8-1.5-2.8-3.2C69.4,59,70.6,57.5,72.1,57.5z"/>
	</g>
</g>
</svg>
