<?xml version="1.0" encoding="utf-8"?>
<!-- Generator: Adobe Illustrator 24.2.3, SVG Export Plug-In . SVG Version: 6.00 Build 0)  -->
<svg version="1.1" id="Layer_1" xmlns="http://www.w3.org/2000/svg" xmlns:xlink="http://www.w3.org/1999/xlink" x="0px" y="0px"
	 viewBox="0 0 512 512" style="enable-background:new 0 0 512 512;" xml:space="preserve">
<style type="text/css">
	.st0{fill:#F44335;}
	.st1{fill:#C81E1E;}
	.st2{fill:#02A9F4;}
	.st3{fill:#0377BC;}
	.st4{fill:#9D27B0;}
	.st5{fill:#6A1B9A;}
	.st6{fill:#1E140A;}
	.st7{fill:#D59C6E;}
	.st8{fill:#545C60;}
	.st9{fill:#7F8E94;}
	.st10{fill:#37474F;}
	.st11{fill:#F5F5F5;}
</style>
<g id="Page-1">
	<g id="_x30_13---News">
		<g id="Icons_copy" transform="translate(1 1)">
			<path id="Shape" class="st0" d="M502.5,331.8V383c0,14.1-11.5,25.6-25.6,25.6H33.1C19,408.6,7.5,397.1,7.5,383v-51.2H502.5z"/>
			<path id="Shape_1_" class="st1" d="M476.9,331.8V383c0,14.1-11.5,25.6-25.6,25.6h25.6c14.1,0,25.6-11.5,25.6-25.6v-51.2H476.9z"
				/>
			<path id="Shape_2_" class="st2" d="M502.5,33.1v298.7H357.4c-0.6-13.5-6.8-26.1-17.1-34.8V127c0-47.1-38.2-85.3-85.3-85.3
				s-85.3,38.2-85.3,85.3v170c-10.3,8.8-16.4,21.4-17.1,34.8H7.5V33.1C7.5,19,19,7.5,33.1,7.5h443.7C491,7.5,502.5,19,502.5,33.1z"
				/>
			<path id="Shape_3_" class="st3" d="M476.9,7.5h-25.6c14.1,0,25.6,11.5,25.6,25.6v298.7h25.6V33.1C502.5,19,491,7.5,476.9,7.5z"/>
			<path id="Shape_4_" class="st4" d="M280.6,306.2c0-8.1-3.8-15.6-10.2-20.5c5.7-2.2,9.7-7.5,10.2-13.7
				c22.3,0.8,43.5,9.7,59.7,24.9c10.3,8.8,16.4,21.4,17.1,34.8H255C269.1,331.8,280.6,320.3,280.6,306.2z"/>
			<path id="Shape_5_" class="st5" d="M340.3,297c-16.3-15.2-37.5-24.1-59.7-24.9c0,1.5-0.3,3-0.9,4.4c13,4.3,24.9,11.3,35,20.6
				c10.3,8.8,16.4,21.4,17.1,34.8h25.6C356.8,318.3,350.6,305.7,340.3,297z"/>
			<path id="Shape_6_" class="st4" d="M255,331.8H152.6c0.6-13.5,6.8-26.1,17.1-34.8c16.3-15.2,37.5-24.1,59.7-24.9
				c0.5,6.2,4.6,11.5,10.3,13.7c-6.5,4.8-10.3,12.4-10.3,20.5C229.4,320.3,240.9,331.8,255,331.8z"/>
			<path id="Shape_7_" class="st6" d="M340.3,127v170c-16.3-15.2-37.5-24.1-59.7-24.9v-39.9c20.8-9.9,34.1-30.9,34.1-53.9V127
				c-76.8,0-76.8-25.6-76.8-25.6c0,25.6-42.7,25.6-42.7,25.6v51.2c0,23.1,13.3,44,34.1,53.9v39.9c-22.3,0.8-43.5,9.7-59.7,24.9V127
				c0-47.1,38.2-85.3,85.3-85.3S340.3,79.9,340.3,127L340.3,127z"/>
			<path id="Shape_8_" class="st6" d="M315.3,66.7c-16-16-37.7-25-60.3-25c-4.3,0-8.6,0.4-12.8,1c41.7,6.3,72.5,42.1,72.5,84.3
				v153.1c9.4,4.2,18.1,10,25.6,17.1V127C340.3,104.4,331.3,82.7,315.3,66.7L315.3,66.7z"/>
			<path id="Shape_9_" class="st7" d="M280.6,232.1v39.9c-0.5,6.1-4.5,11.4-10.2,13.7c-4.4-3.3-9.8-5.1-15.4-5.1
				c-5.5,0-10.9,1.8-15.3,5.1c-5.8-2.2-9.8-7.5-10.3-13.7v-39.9C245.6,239.8,264.4,239.8,280.6,232.1L280.6,232.1z"/>
			<path id="Rectangle-path" class="st8" d="M109.9,408.6h290.1v42.7H109.9V408.6z"/>
			<path id="Rectangle-path_1_" class="st9" d="M84.3,451.3h341.3c9.4,0,17.1,7.6,17.1,17.1v17.1c0,9.4-7.6,17.1-17.1,17.1H84.3
				c-9.4,0-17.1-7.6-17.1-17.1v-17.1C67.3,458.9,74.9,451.3,84.3,451.3z"/>
			<path id="Shape_10_" class="st8" d="M425.7,451.3h-25.6c9.4,0,17.1,7.6,17.1,17.1v17.1c0,9.4-7.6,17.1-17.1,17.1h25.6
				c9.4,0,17.1-7.6,17.1-17.1v-17.1C442.7,458.9,435.1,451.3,425.7,451.3z"/>
			<path id="Shape_11_" class="st7" d="M314.7,127v51.2c0,23.1-13.3,44-34.1,53.9c-8,3.9-16.7,5.8-25.6,5.8c-4.2,0-8.5-0.5-12.6-1.4
				c-4.5-1-8.8-2.4-13-4.4c-20.8-9.9-34.1-30.9-34.1-53.9V127c0,0,42.7,0,42.7-25.6c0,0,0,19.5,51.2,24.5
				C296.6,127,305,127,314.7,127z"/>
			<path id="Shape_12_" class="st7" d="M314.7,127v51.2c0,23.1-13.3,44-34.1,53.9c-8,3.9-16.7,5.8-25.6,5.8c-4.2,0-8.5-0.5-12.6-1.4
				c4.4-1,8.6-2.5,12.6-4.4c20.8-9.9,34.1-30.9,34.1-53.9v-52.3C296.6,127,305,127,314.7,127z"/>
			<path id="Shape_13_" class="st10" d="M280.6,306.2c0,14.1-11.5,25.6-25.6,25.6c-14.1,0-25.6-11.5-25.6-25.6
				c0-14.1,11.5-25.6,25.6-25.6C269.1,280.6,280.6,292.1,280.6,306.2z"/>
		</g>
		<g id="Layer_2_1_">
			<path id="Shape_14_" d="M477.9,0H34.1C15.3,0,0,15.3,0,34.1V384c0,18.9,15.3,34.1,34.1,34.1h68.3v25.6H85.3
				c-14.1,0-25.6,11.5-25.6,25.6v17.1c0,14.1,11.5,25.6,25.6,25.6h341.3c14.1,0,25.6-11.5,25.6-25.6v-17.1
				c0-14.1-11.5-25.6-25.6-25.6h-17.1v-25.6h68.3c18.9,0,34.1-15.3,34.1-34.1V34.1C512,15.3,496.7,0,477.9,0z M34.1,17.1h443.7
				c9.4,0,17.1,7.6,17.1,17.1v290.1H366.1c-2.4-11.3-8-21.8-16.2-30V128c0-51.8-42-93.9-93.9-93.9s-93.9,42-93.9,93.9v166.3
				c-8.2,8.2-13.8,18.6-16.2,30H17.1V34.1C17.1,24.7,24.7,17.1,34.1,17.1z M332.8,280.4c-12.9-8.3-27.5-13.5-42.7-15.4v-26.8
				c21.1-12.2,34.1-34.7,34.1-59.1V128c0-4.7-3.8-8.5-8.5-8.5c-62.2,0-68.3-17.1-68.3-17.1c0-4.7-3.8-8.5-8.5-8.5
				c-4.7,0-8.5,3.8-8.5,8.5c0,16.5-34.1,17.1-34.1,17.1c-4.7,0-8.5,3.8-8.5,8.5v51.2c0,24.4,13,46.9,34.1,59.1V265
				c-15.2,1.8-29.8,7.1-42.7,15.4V128c0-42.4,34.4-76.8,76.8-76.8s76.8,34.4,76.8,76.8V280.4z M256,230.4
				c-28.3,0-51.2-22.9-51.2-51.2v-42.7c13.6-0.6,26.5-6.2,36.3-15.6c10,7.1,29.2,14.5,66.1,15.6v42.7
				C307.2,207.5,284.3,230.4,256,230.4z M241,276.7c-1.2-0.9-1.9-2.2-2-3.6v-27.8c11.2,3,22.9,3,34.1,0v27.8c-0.2,1.4-0.9,2.7-2,3.6
				C261.6,271.9,250.4,271.9,241,276.7z M176.1,304.4c0.3-0.2,0.6-0.5,0.9-0.8c13-12,29.4-19.7,47-22c1,2.2,2.3,4.1,3.9,5.9
				c-4,5.8-6.1,12.7-6.1,19.7c0,6,1.7,11.9,4.8,17.1h-63.1C165.9,316.7,170.3,309.8,176.1,304.4z M238.9,307.2
				c0-9.4,7.6-17.1,17.1-17.1c9.4,0,17.1,7.6,17.1,17.1s-7.6,17.1-17.1,17.1C246.6,324.3,238.9,316.6,238.9,307.2z M284,287.8
				c1.6-1.7,3-3.7,4-5.9c17.5,2.2,34,9.8,47,21.7c0.2,0.3,0.5,0.6,0.9,0.8c5.9,5.4,10.2,12.3,12.6,19.9h-63.1
				C292.2,312.9,291.6,298.6,284,287.8z M435.2,469.3v17.1c0,4.7-3.8,8.5-8.5,8.5H85.3c-4.7,0-8.5-3.8-8.5-8.5v-17.1
				c0-4.7,3.8-8.5,8.5-8.5h341.3C431.4,460.8,435.2,464.6,435.2,469.3z M392.5,443.7H119.5v-25.6h273.1V443.7z M477.9,401.1H34.1
				c-9.4,0-17.1-7.6-17.1-17.1v-42.7h477.9V384C494.9,393.4,487.3,401.1,477.9,401.1z"/>
			<path id="Shape_15_" class="st11" d="M42.7,93.9c2.3,0,4.4-0.9,6.1-2.5l42.7-42.7c3.3-3.3,3.3-8.8,0-12.1s-8.8-3.3-12.1,0
				L36.6,79.3c-1.6,1.6-2.5,3.8-2.5,6.1c0,2.3,0.9,4.5,2.5,6.1C38.2,93,40.4,93.9,42.7,93.9z"/>
			<path id="Shape_16_" class="st11" d="M42.7,145.1c2.3,0,4.4-0.9,6.1-2.5l93.9-93.9c2.2-2.2,3-5.3,2.2-8.3c-0.8-3-3.1-5.3-6.1-6.1
				s-6.1,0.1-8.3,2.2l-93.9,93.9c-1.6,1.6-2.5,3.8-2.5,6.1c0,2.3,0.9,4.5,2.5,6.1C38.2,144.2,40.4,145.1,42.7,145.1z"/>
			<path id="Shape_17_" d="M85.3,358.4H42.7c-4.7,0-8.5,3.8-8.5,8.5s3.8,8.5,8.5,8.5h42.7c4.7,0,8.5-3.8,8.5-8.5
				S90,358.4,85.3,358.4z"/>
			<path id="Shape_18_" d="M469.3,358.4h-128c-4.7,0-8.5,3.8-8.5,8.5s3.8,8.5,8.5,8.5h128c4.7,0,8.5-3.8,8.5-8.5
				S474,358.4,469.3,358.4z"/>
			<path id="Shape_19_" class="st11" d="M435.2,51.2h34.1c4.7,0,8.5-3.8,8.5-8.5s-3.8-8.5-8.5-8.5h-34.1c-4.7,0-8.5,3.8-8.5,8.5
				S430.5,51.2,435.2,51.2z"/>
			<path id="Shape_20_" d="M307.2,358.4H119.5c-4.7,0-8.5,3.8-8.5,8.5s3.8,8.5,8.5,8.5h187.7c4.7,0,8.5-3.8,8.5-8.5
				S311.9,358.4,307.2,358.4z"/>
		</g>
	</g>
</g>
</svg>
