<?xml version="1.0" encoding="utf-8"?>
<!-- Generator: Adobe Illustrator 24.2.3, SVG Export Plug-In . SVG Version: 6.00 Build 0)  -->
<svg version="1.1" id="Capa_1" xmlns="http://www.w3.org/2000/svg" xmlns:xlink="http://www.w3.org/1999/xlink" x="0px" y="0px"
	 viewBox="0 0 100 100" style="enable-background:new 0 0 100 100;" xml:space="preserve">
<style type="text/css">
	.st0{fill-rule:evenodd;clip-rule:evenodd;fill:#D6E8FF;}
	.st1{fill-rule:evenodd;clip-rule:evenodd;fill:#C4DFFF;}
	.st2{fill-rule:evenodd;clip-rule:evenodd;fill:#FFDECF;}
	.st3{fill-rule:evenodd;clip-rule:evenodd;fill:#CCF49F;}
	.st4{fill-rule:evenodd;clip-rule:evenodd;fill:#B95A0D;}
	.st5{fill-rule:evenodd;clip-rule:evenodd;fill:#FFE5A0;}
	.st6{fill-rule:evenodd;clip-rule:evenodd;fill:#D59C6E;}
	.st7{fill-rule:evenodd;clip-rule:evenodd;fill:#FF6978;}
	.st8{fill-rule:evenodd;clip-rule:evenodd;fill:#F2CE7E;}
	.st9{fill-rule:evenodd;clip-rule:evenodd;fill:#E85A68;}
	.st10{fill-rule:evenodd;clip-rule:evenodd;fill:#B3E59F;}
	.st11{fill-rule:evenodd;clip-rule:evenodd;fill:#C16E2A;}
	.st12{fill-rule:evenodd;clip-rule:evenodd;fill:#DDAF89;}
	.st13{fill-rule:evenodd;clip-rule:evenodd;fill:#FCD4C2;}
</style>
<g>
	<g>
		<path class="st0" d="M50,89.5c23.3,0,42.1-19.8,42.1-44.3S73.2,1,50,1S7.9,20.8,7.9,45.3S26.7,89.5,50,89.5L50,89.5z"/>
		<path class="st1" d="M50,89.5c23.3,0,42.1-19.8,42.1-44.3c0-13.5-5.7-25.5-14.7-33.7c6.3,7.7,10.1,17.8,10.1,28.8
			c0,24.5-18.9,44.3-42.1,44.3c-10.4,0-20-4-27.4-10.6C25.7,83.6,37.2,89.5,50,89.5z"/>
		<path class="st2" d="M38.3,54.4v12.7c0,5.8,4.7,5.5,4.7,12.8h14c0-11,4.4-10.1,4.4-20.8c0-10.1-0.9-21.4-11.1-22.4
			c-2.9-0.3-5.2,2.5-5.2,5.5v12.2c0-2-1.5-3.6-3.4-3.6C39.8,50.8,38.3,52.4,38.3,54.4L38.3,54.4z"/>
		<path class="st3" d="M38.5,84.6v10.8c0.2,1.6,1.4,2.9,2.9,3h17.2c1.5-0.2,2.7-1.4,2.9-3V84.6c0-2.6-2-4.7-4.5-4.7H43
			C40.5,79.9,38.5,82,38.5,84.6z"/>
		<path class="st4" d="M62.5,52.4L72.9,46c4.8-2.9,2.1-7,8.2-10.7l-7-12.7c-9.1,5.5-10.5,1.1-19.3,6.4C46.5,34.1,37.7,40.5,42,50.3
			c1.2,2.7,4.6,3.5,7.1,2l10-6.1c-1.6,1-2.2,3.2-1.2,4.8C58.8,52.8,60.9,53.4,62.5,52.4L62.5,52.4z"/>
		<path class="st5" d="M87.3,37.1l8.9-5.4c1.2-0.9,1.7-2.7,1.1-4.1l-8.6-15.7c-0.9-1.3-2.5-1.7-3.9-1.1l-8.9,5.4
			c-2.1,1.3-2.9,4.2-1.6,6.4l7,12.7C82.4,37.6,85.1,38.4,87.3,37.1L87.3,37.1z"/>
		<path class="st6" d="M49.2,31.1l-10.4-6.3c-4.8-2.9-6.9,1.6-12.9-2.1l-7,12.7c9.1,5.5,6.2,9.1,14.9,14.4c8.4,5.1,18.1,9.8,24,1.1
			c1.7-2.4,0.6-6-1.9-7.5l-10-6.1c1.6,1,3.7,0.4,4.6-1.3C51.4,34.3,50.8,32.1,49.2,31.1L49.2,31.1z"/>
		<path class="st7" d="M24.2,16.2l-8.9-5.4c-1.4-0.6-3-0.2-3.9,1.1L2.8,27.6c-0.6,1.5-0.2,3.2,1.1,4.1l8.9,5.4
			c2.1,1.3,4.9,0.5,6.1-1.7l7-12.7C27.1,20.4,26.3,17.5,24.2,16.2L24.2,16.2z"/>
		<path class="st8" d="M82.7,37c1.3,0.8,3.1,0.9,4.5,0l8.9-5.4c1.2-0.9,1.7-2.7,1.1-4.1l-8.6-15.7c-0.9-1.3-2.5-1.7-3.9-1.1
			l-1.1,0.7c0.1,0.1,0.3,0.3,0.4,0.5l8.6,15.7c0.6,1.5,0.2,3.2-1.1,4.1L82.7,37z"/>
		<path class="st9" d="M21.2,22.6l-7,12.7c-0.4,0.7-0.9,1.3-1.6,1.7l0.1,0c2.1,1.3,4.9,0.5,6.1-1.7l7-12.7c1.2-2.3,0.5-5.2-1.6-6.4
			l-8.9-5.4c-1.2-0.6-2.6-0.3-3.6,0.7l7.8,4.7C21.7,17.5,22.4,20.4,21.2,22.6z"/>
		<path class="st10" d="M56.8,95.4c-0.2,1.6-1.4,2.9-2.9,3h4.6c1.5-0.2,2.7-1.4,2.9-3V84.6c0-1.1-0.4-2.1-0.9-2.9
			c-0.8-1.1-2.1-1.8-3.5-1.8h-4.6c2.5,0,4.5,2.1,4.5,4.7V95.4L56.8,95.4z"/>
		<path class="st11" d="M70.5,24.5l5.2,9.5c0.3,0.8,0,1.8-0.6,2.3c-4.5,3.2-2.5,7.1-6.9,9.8L61,50.5l-2.4,1.5c0.7,0.7,1.7,1,2.6,0.9
			c0.4-0.1,0.9-0.2,1.3-0.5L72.9,46c4.8-2.9,2.1-7,8.2-10.7l-7-12.7C72.8,23.4,71.6,24,70.5,24.5L70.5,24.5z"/>
		<path class="st12" d="M51.2,43.3c2.1,1.3,3.2,3.9,2.5,6.2c-0.1,0.5-0.3,0.9-0.6,1.3c-1.9,2.7-4.1,4.1-6.5,4.6
			c4.2,0.7,8.1-0.2,11.1-4.6c0,0,0,0,0-0.1c0.8-1.2,1-2.6,0.6-4c0,0,0-0.1,0-0.1c-0.4-1.4-1.3-2.6-2.5-3.4l-8.9-5.4l-1.1-0.7
			c0.4,0.2,0.9,0.4,1.3,0.5c1,0.1,2-0.2,2.7-1c0.2-0.2,0.4-0.5,0.6-0.8c0.7-1.3,0.6-2.8-0.2-3.9c-0.3-0.4-0.6-0.7-1-0.9l-10.4-6.3
			c-2.5-1.5-4.2-1-6.2-0.7c0.5,0.2,1,0.4,1.6,0.7l10.4,6.3c1.4,0.9,2,2.6,1.5,4.2c-0.1,0.2-0.2,0.4-0.3,0.6c-0.2,0.4-0.5,0.7-0.8,1
			c-0.3,0.2-0.6,0.4-1,0.6c-0.7,0.3-0.1,1.3,0.7,1.8L51.2,43.3z"/>
		<path class="st13" d="M56.7,59.1c0,10.6-4.4,9.8-4.4,20.8H57c0-11,4.4-10.1,4.4-20.8c0-2.1,0-4.2-0.2-6.3c-1,0.1-1.9-0.2-2.6-0.9
			c-0.3-0.2-0.5-0.5-0.7-0.9c0-0.1-0.1-0.1-0.1-0.2c-0.4,0.6-0.8,1.1-1.2,1.6C56.7,54.6,56.7,56.9,56.7,59.1L56.7,59.1z"/>
	</g>
	<path d="M13.4,35.5c0.7,0.4,1.5,0.5,2.3,0.3c0.9-0.2,1.4-0.7,1.9-1.5l6.9-12.5c0.4-0.7,0.5-1.6,0.3-2.4c-0.2-0.9-0.7-1.4-1.5-2
		c-3.3-2-6.6-4-9.9-6l-9.9,18C6.8,31.5,10.1,33.5,13.4,35.5z M38.5,34.5c-0.7-0.4-0.9-1.4-0.5-2.1s1.3-1,2-0.6l6.3,3.8
		c0.9,0.5,2.1,0.2,2.6-0.7c0.5-0.9,0.2-2.2-0.7-2.7L37.8,26c-1.8-1.1-3.1-0.9-4.6-0.6c-1.9,0.3-4,0.6-6.9-0.8l-5.5,10
		c3.8,2.6,5.3,4.7,6.8,6.9c3.9,5.8,12.6,10.9,19.1,12c3.7,0.6,7.8-0.6,9.7-4.2c0.4-0.7,0.5-1.6,0.2-2.5c-0.3-1.2-0.9-1.8-1.9-2.5
		C49.2,41.1,43.8,37.8,38.5,34.5L38.5,34.5z M10.5,37.3c-0.2,1-0.3,2-0.4,3c-0.2,1.7-0.3,3.4-0.3,5.1c0,3.3,0.4,6.5,1,9.5
		c0.7,3.2,1.7,6.2,3,9c0.4,0.8,0.1,1.7-0.7,2.1c-0.7,0.4-1.6,0.1-2-0.7c-1.4-3.1-2.5-6.3-3.3-9.7c-0.7-3.3-1.1-6.7-1.1-10.2
		c0-1.8,0.1-3.7,0.3-5.5c0.2-1.4,0.4-2.9,0.7-4.3l-7.1-4.3C0,31-0.2,30,0.2,29.3L11.6,8.6c0.4-0.7,1.3-1,2-0.6l7,4.2
		c3.8-3.7,8.2-6.8,13.1-8.9C38.7,1.2,44.2,0,50,0s11.3,1.2,16.4,3.4c4.9,2.1,9.3,5.1,13.1,8.9l6.9-4.2c0.7-0.5,1.6-0.2,2.1,0.5
		l4,7.3c0.4,0.7,0.2,1.7-0.5,2.1c-0.7,0.4-1.6,0.2-2-0.6l-3.3-6c-3.3,2-6.7,4-10,6.1c-0.7,0.4-1.2,1.1-1.4,1.9
		c-0.2,0.8-0.1,1.6,0.3,2.4l2.5,4.6l4.4,8c0.4,0.7,1.1,1.3,1.8,1.5c0.9,0.2,1.5,0.1,2.3-0.3c3.3-2,6.6-4,9.9-6l-3.3-6
		c-0.4-0.7-0.2-1.7,0.5-2.1c0.7-0.4,1.6-0.2,2,0.6l4,7.3c0.4,0.7,0.2,1.7-0.5,2.1l-7.1,4.3c0.3,1.4,0.5,2.8,0.7,4.3
		c0.2,1.8,0.3,3.6,0.3,5.5c0,10.3-3.2,19.7-8.7,27.4c-5.4,7.5-12.9,13.2-21.6,16v9.7c0,0.8-0.7,1.5-1.5,1.5H38.6
		c-0.8,0-1.5-0.7-1.5-1.5v-9.7c-4.4-1.4-8.5-3.6-12.1-6.3c-4-3-7.5-6.7-10.3-10.9c-0.5-0.7-0.3-1.6,0.4-2.1c0.7-0.5,1.6-0.3,2,0.4
		c2.6,3.9,5.9,7.4,9.6,10.2c3.2,2.4,6.7,4.3,10.4,5.6v-0.8c0-1.7,0.7-3.3,1.7-4.4c0.7-0.8,1.6-1.3,2.6-1.6c-0.3-2.4-1.2-3.7-2.1-4.9
		c-1.2-1.7-2.4-3.2-2.4-6.4V54.8c0-0.5,0.1-1,0.3-1.5c-1.5-0.8-3-1.7-4.5-2.5c-4.6-2.8-6.1-5.1-7.7-7.4c-1.3-1.9-2.6-3.8-6-6.1
		c-0.7,0.8-1.7,1.4-2.7,1.6c-1.5,0.4-3.1,0.2-4.5-0.6L10.5,37.3z M23.2,13.9l1.6,0.9c1.4,0.7,2.4,2.3,2.8,3.8c0.3,1,0.3,2.2,0,3.2
		c2.1,1,3.7,0.7,5.2,0.5c2.6-0.4,4.2-0.4,6.5,1l10.3,6.3c0.3,0.2,0.5,0.4,0.8,0.6c0.5-0.3,1-0.7,1.5-1c0.9-0.6,1.8-1.1,2.6-1.7
		c4.6-2.8,7.3-3,10-3.3c2.2-0.2,4.4-0.4,8-2.4c-0.3-1.1-0.3-2.2,0-3.3c0.4-1.6,1.4-2.9,2.8-3.8l1.6-1c-3.4-3.2-7.3-5.8-11.6-7.6
		c-4.7-2-9.8-3.1-15.2-3.1S39.5,4.2,34.7,6.2C30.5,8.1,26.6,10.7,23.2,13.9L23.2,13.9z M51.9,32.9c0.3,1.1,0.1,2.4-0.4,3.5
		c-0.2,0.6-0.9,1.3-1.3,1.7l6,3.7c1.1,0.6,2.1,1.8,2.7,2.9l6.2-3.8c0.7-0.4,1.6-0.2,2,0.6c0.4,0.7,0.2,1.7-0.5,2.1l-6.3,3.8
		c-0.2,0.1-0.4,0.2-0.5,0.2c0,0.8-0.1,1.5-0.3,2.3c0.4,0.6,0.5,0.9,1.3,1.1c0.6,0.2,1,0,1.5-0.2l10.3-6.2c1.8-1.1,2.3-2.4,2.8-3.9
		c0.7-1.9,1.5-3.9,4.1-5.9c-1.9-3.3-3.7-6.7-5.5-10c-4,2.2-6.5,2.5-9,2.7c-2.4,0.2-4.7,0.5-8.8,2.9c-0.7,0.4-1.6,1-2.5,1.6
		C52.8,32.2,52.3,32.5,51.9,32.9L51.9,32.9z M57.6,52.5c-3.1,3.8-6.9,4.7-11.1,4.1v5.9c0,0.8-0.7,1.5-1.5,1.5s-1.5-0.7-1.5-1.5V56
		c-1.2-0.4-2.5-0.9-3.7-1.4c0,0.1,0,0.2,0,0.2v12.6c0,2.2,0.9,3.3,1.8,4.5c1.2,1.6,2.5,3.3,2.8,6.7h11c0.2-4,0.9-6.4,2.5-9.9
		c0.3-0.8,1.2-1.1,1.9-0.8c0.7,0.3,1.1,1.3,0.7,2c-1.4,3.2-2.1,5.2-2.2,8.9c1,0.3,2,0.8,2.7,1.6c1.1,1.1,1.7,2.7,1.7,4.4v0.8
		c7.8-2.8,14.4-7.9,19.3-14.6c5.1-7.1,8.1-15.9,8.1-25.5c0-1.7-0.1-3.4-0.3-5.1c-0.1-1-0.3-2-0.4-3l-1.4,0.9
		c-1.3,0.9-3.1,1.1-4.5,0.7c-1-0.3-1.9-0.8-2.7-1.6c-1.9,1.5-2.5,3-3,4.4c-1,2.5-1.7,4-4.1,5.4c-3.5,2.1-6.9,4.2-10.3,6.3
		c-0.3,0.2-0.6,0.3-0.9,0.4c0,0.6,0.1,1.3,0.1,1.9c0.1,1.4,0.1,2.7,0.1,3.8c0,1.1-0.1,2.2-0.2,3.2c-0.1,0.8-0.8,1.5-1.6,1.4
		c-0.8-0.1-1.4-0.8-1.3-1.7c0.1-1,0.1-1.9,0.1-2.9c0-1.3,0-2.5-0.1-3.7c0-0.7-0.1-1.3-0.1-2C58.9,53.6,58.2,53.1,57.6,52.5
		L57.6,52.5z M40.1,84.8v12.1h19.8V84.8c0-0.9-0.3-1.6-0.9-2.2c-0.5-0.6-1.3-0.9-2.1-0.9H43.1c-0.8,0-1.6,0.3-2.1,0.9
		C40.4,83.1,40.1,83.9,40.1,84.8L40.1,84.8z"/>
</g>
</svg>
